<svg id="visual" viewBox="0 0 1920 1080" width="1920" height="1080" xmlns="http://www.w3.org/2000/svg" xmlns:xlink="http://www.w3.org/1999/xlink" version="1.1"><rect width="1920" height="1080" fill="#14171c"></rect><g><g transform="translate(1354 211)"><path d="M0 -288.1L249.5 -144L249.5 144L0 288.1L-249.5 144L-249.5 -144Z" fill="none" stroke="#cba6f7" stroke-width="2"></path></g><g transform="translate(640 807)"><path d="M0 -248L214.8 -124L214.8 124L0 248L-214.8 124L-214.8 -124Z" fill="none" stroke="#cba6f7" stroke-width="2"></path></g><g transform="translate(1256 835)"><path d="M0 -215L186.2 -107.5L186.2 107.5L0 215L-186.2 107.5L-186.2 -107.5Z" fill="none" stroke="#cba6f7" stroke-width="2"></path></g><g transform="translate(1843 1038)"><path d="M0 -280L242.5 -140L242.5 140L0 280L-242.5 140L-242.5 -140Z" fill="none" stroke="#cba6f7" stroke-width="2"></path></g></g></svg>